<?xml version="1.0" encoding="utf-8"?>
<!-- Generator: Adobe Illustrator 19.1.0, SVG Export Plug-In . SVG Version: 6.00 Build 0)  -->
<svg version="1.0" xmlns="http://www.w3.org/2000/svg" xmlns:xlink="http://www.w3.org/1999/xlink" x="0px" y="0px" width="7.5px"
	 height="12px" viewBox="0 0 7.5 12" enable-background="new 0 0 7.5 12" xml:space="preserve">
<symbol  id="button" viewBox="0.5 -30 150 33">
	<g>
		<g>
			<path fill="#E6000D" d="M147.5-30H3.5c-1.7,0-3,1.3-3,3v25.3c0,1.7,1.3,3,3,3h144c1.7,0,3-1.3,3-3V-27
				C150.5-28.7,149.2-30,147.5-30z"/>
		</g>
		<g>
			<g>
				<defs>
					<path id="SVGID_1_" d="M147.5-28.4H3.5c-1.7,0-3,1.3-3,3V0c0,1.7,1.3,3,3,3h144c1.7,0,3-1.3,3-3v-25.3
						C150.5-27,149.2-28.4,147.5-28.4z"/>
				</defs>
				<clipPath id="SVGID_2_">
					<use xlink:href="#SVGID_1_"  overflow="visible"/>
				</clipPath>
				<path clip-path="url(#SVGID_2_)" fill="#ED4C56" d="M147.5-30H3.5c-1.7,0-3,1.3-3,3v25.3c0,1.7,1.3,3,3,3h144c1.7,0,3-1.3,3-3
					V-27C150.5-28.7,149.2-30,147.5-30z"/>
			</g>
		</g>
	</g>
</symbol>
<g id="background">
</g>
<g id="content">
</g>
<g id="overlay">
</g>
<g id="grid">
	<g id="dropdown">
	</g>
</g>
<g id="assets">
	<g>
		<g>
			<path fill="#FFFFFF" d="M1.5,12c-0.4,0-0.8-0.1-1.1-0.4c-0.6-0.6-0.6-1.5,0-2.1L3.9,6L0.4,2.6C-0.1,2-0.1,1,0.4,0.4
				C1-0.1,2-0.1,2.6,0.4L7.1,5C7.4,5.2,7.5,5.6,7.5,6c0,0.4-0.2,0.8-0.4,1.1l-4.5,4.5C2.3,11.9,1.9,12,1.5,12z"/>
		</g>
	</g>
</g>
</svg>
