<?xml version="1.0" encoding="utf-8"?>
<!-- Generator: Adobe Illustrator 19.1.0, SVG Export Plug-In . SVG Version: 6.00 Build 0)  -->
<svg version="1.0" xmlns="http://www.w3.org/2000/svg" xmlns:xlink="http://www.w3.org/1999/xlink" x="0px" y="0px" width="13.6px"
	 height="13.6px" viewBox="0 0 13.6 13.6" enable-background="new 0 0 13.6 13.6" xml:space="preserve">
<symbol  id="button" viewBox="0.5 -30 150 33">
	<g>
		<g>
			<path fill="#E6000D" d="M147.5-30H3.5c-1.7,0-3,1.3-3,3v25.3c0,1.7,1.3,3,3,3h144c1.7,0,3-1.3,3-3V-27
				C150.5-28.7,149.2-30,147.5-30z"/>
		</g>
		<g>
			<g>
				<defs>
					<path id="SVGID_1_" d="M147.5-28.4H3.5c-1.7,0-3,1.3-3,3V0c0,1.7,1.3,3,3,3h144c1.7,0,3-1.3,3-3v-25.3
						C150.5-27,149.2-28.4,147.5-28.4z"/>
				</defs>
				<clipPath id="SVGID_2_">
					<use xlink:href="#SVGID_1_"  overflow="visible"/>
				</clipPath>
				<path clip-path="url(#SVGID_2_)" fill="#ED4C56" d="M147.5-30H3.5c-1.7,0-3,1.3-3,3v25.3c0,1.7,1.3,3,3,3h144c1.7,0,3-1.3,3-3
					V-27C150.5-28.7,149.2-30,147.5-30z"/>
			</g>
		</g>
	</g>
</symbol>
<g id="background">
</g>
<g id="content">
</g>
<g id="overlay">
	<path fill="#CDCDCD" d="M8.9,6.8l4.2-4.2c0.6-0.6,0.6-1.5,0-2.1s-1.5-0.6-2.1,0L6.8,4.7L2.6,0.4C2-0.1,1-0.1,0.4,0.4
		s-0.6,1.5,0,2.1l4.2,4.2L0.4,11c-0.6,0.6-0.6,1.5,0,2.1c0.3,0.3,0.7,0.4,1.1,0.4s0.8-0.1,1.1-0.4l4.2-4.2l4.2,4.2
		c0.3,0.3,0.7,0.4,1.1,0.4s0.8-0.1,1.1-0.4c0.6-0.6,0.6-1.5,0-2.1L8.9,6.8z"/>
</g>
<g id="grid">
	<g id="dropdown">
	</g>
</g>
<g id="assets">
</g>
</svg>
