<?xml version="1.0" encoding="utf-8"?>
<!-- Generator: Adobe Illustrator 19.1.0, SVG Export Plug-In . SVG Version: 6.00 Build 0)  -->
<svg version="1.0" id="Layer_1" xmlns="http://www.w3.org/2000/svg" xmlns:xlink="http://www.w3.org/1999/xlink" x="0px" y="0px"
	 width="9.9px" height="13.9px" viewBox="26.5 34.3 9.9 13.9" enable-background="new 26.5 34.3 9.9 13.9" xml:space="preserve">
<g id="background">
</g>
<g id="content">
</g>
<g id="overlay">
</g>
<g id="grid">
	<g id="dropdown">
	</g>
</g>
<g id="assets">
	<path fill="#F7F7F7" d="M36.2,41.9c-0.3-0.3-0.7-0.3-1,0l-3,3v-9.8c0-0.4-0.3-0.7-0.7-0.7c-0.4,0-0.7,0.3-0.7,0.7v9.7l-3-3
		c-0.3-0.3-0.7-0.3-1,0c-0.3,0.3-0.1,0.9,0,1.2l3.7,3.7h-2.7c-0.4,0-0.7,0.3-0.7,0.7c0,0.4,0.3,0.7,0.7,0.7h7.4
		c0.4,0,0.7-0.3,0.7-0.7c0-0.4-0.3-0.7-0.7-0.7h-2.7l3.7-3.7C36.5,42.7,36.5,42.2,36.2,41.9z"/>
</g>
</svg>
