<?xml version="1.0" encoding="utf-8"?>
<!-- Generator: Adobe Illustrator 19.1.0, SVG Export Plug-In . SVG Version: 6.00 Build 0)  -->
<svg version="1.0" xmlns="http://www.w3.org/2000/svg" xmlns:xlink="http://www.w3.org/1999/xlink" x="0px" y="0px" width="16.1px"
	 height="16.1px" viewBox="0 0 16.1 16.1" enable-background="new 0 0 16.1 16.1" xml:space="preserve">
<symbol  id="button" viewBox="0.5 -30 150 33">
	<g>
		<g>
			<path fill="#E6000D" d="M147.5-30H3.5c-1.7,0-3,1.3-3,3v25.3c0,1.7,1.3,3,3,3h144c1.7,0,3-1.3,3-3V-27
				C150.5-28.7,149.2-30,147.5-30z"/>
		</g>
		<g>
			<g>
				<defs>
					<path id="SVGID_1_" d="M147.5-28.4H3.5c-1.7,0-3,1.3-3,3V0c0,1.7,1.3,3,3,3h144c1.7,0,3-1.3,3-3v-25.3
						C150.5-27,149.2-28.4,147.5-28.4z"/>
				</defs>
				<clipPath id="SVGID_2_">
					<use xlink:href="#SVGID_1_"  overflow="visible"/>
				</clipPath>
				<path clip-path="url(#SVGID_2_)" fill="#ED4C56" d="M147.5-30H3.5c-1.7,0-3,1.3-3,3v25.3c0,1.7,1.3,3,3,3h144c1.7,0,3-1.3,3-3
					V-27C150.5-28.7,149.2-30,147.5-30z"/>
			</g>
		</g>
	</g>
</symbol>
<g id="background">
</g>
<g id="content">
</g>
<g id="overlay">
</g>
<g id="grid">
	<g id="dropdown">
	</g>
</g>
<g id="assets">
	<g>
		<circle fill="#D4D4D4" cx="8" cy="8" r="8"/>
		<g>
			<path fill="#FFFFFF" d="M2.3,6h0.8l0.9,2.8c0.1,0.5,0.3,1,0.5,1.4h0C4.7,9.7,4.8,9.2,5,8.7L5.9,6h0.8L5,10.8H4L2.3,6z"/>
			<path fill="#FFFFFF" d="M7.3,9.7c0.3,0,0.6,0.3,0.6,0.6c0,0.4-0.3,0.6-0.6,0.6c-0.3,0-0.6-0.3-0.6-0.6C6.7,9.9,7,9.7,7.3,9.7z"/>
			<path fill="#FFFFFF" d="M8.9,9.7c0.4,0.3,0.8,0.6,1.4,0.6c0.6,0,1-0.3,1-0.8c0-0.5-0.6-0.7-1.1-0.9C9.5,8.4,8.7,8,8.7,7.2
				c0-0.8,0.6-1.4,1.7-1.4c0.6,0,1.1,0.2,1.5,0.5l-0.4,0.5c-0.3-0.2-0.7-0.4-1.1-0.4c-0.6,0-0.9,0.3-0.9,0.7c0,0.5,0.5,0.6,1.1,0.8
				C11.3,8.3,12,8.6,12,9.5c0,0.8-0.6,1.4-1.8,1.4c-0.7,0-1.3-0.3-1.8-0.7L8.9,9.7z"/>
			<path fill="#FFFFFF" d="M13.2,9.7c0.3,0,0.6,0.3,0.6,0.6c0,0.4-0.3,0.6-0.6,0.6c-0.3,0-0.6-0.3-0.6-0.6
				C12.6,9.9,12.9,9.7,13.2,9.7z"/>
		</g>
	</g>
</g>
</svg>
