<?xml version="1.0" encoding="utf-8"?>
<!-- Generator: Adobe Illustrator 19.1.0, SVG Export Plug-In . SVG Version: 6.00 Build 0)  -->
<svg version="1.0" xmlns="http://www.w3.org/2000/svg" xmlns:xlink="http://www.w3.org/1999/xlink" x="0px" y="0px" width="118.9px"
	 height="17.2px" viewBox="0 0 118.9 17.2" enable-background="new 0 0 118.9 17.2" xml:space="preserve">
<symbol  id="button" viewBox="0.5 -30 150 33">
	<g>
		<g>
			<path fill="#E6000D" d="M147.5-30H3.5c-1.7,0-3,1.3-3,3v25.3c0,1.7,1.3,3,3,3h144c1.7,0,3-1.3,3-3V-27
				C150.5-28.7,149.2-30,147.5-30z"/>
		</g>
		<g>
			<g>
				<defs>
					<path id="SVGID_1_" d="M147.5-28.4H3.5c-1.7,0-3,1.3-3,3V0c0,1.7,1.3,3,3,3h144c1.7,0,3-1.3,3-3v-25.3
						C150.5-27,149.2-28.4,147.5-28.4z"/>
				</defs>
				<clipPath id="SVGID_2_">
					<use xlink:href="#SVGID_1_"  overflow="visible"/>
				</clipPath>
				<path clip-path="url(#SVGID_2_)" fill="#ED4C56" d="M147.5-30H3.5c-1.7,0-3,1.3-3,3v25.3c0,1.7,1.3,3,3,3h144c1.7,0,3-1.3,3-3
					V-27C150.5-28.7,149.2-30,147.5-30z"/>
			</g>
		</g>
	</g>
</symbol>
<g id="background">
</g>
<g id="content">
</g>
<g id="overlay">
</g>
<g id="grid">
	<g id="dropdown">
	</g>
</g>
<g id="assets">
	<g>
		<path fill-rule="evenodd" clip-rule="evenodd" fill="#FFFFFF" d="M116.8,13.2c-1.1,0-2,0.9-2,2c0,1.1,0.9,2.1,2,2.1s2-0.9,2-2.1
			C118.8,14.1,117.9,13.2,116.8,13.2z M116.8,17c-1,0-1.8-0.8-1.8-1.8c0-1,0.8-1.8,1.8-1.8s1.8,0.8,1.8,1.8
			C118.6,16.2,117.8,17,116.8,17z"/>
		<path fill-rule="evenodd" clip-rule="evenodd" fill="#FFFFFF" d="M117.8,15.7c0-0.2-0.2-0.4-0.4-0.5c0.3,0,0.5-0.2,0.5-0.5
			c0-0.4-0.3-0.7-0.7-0.7h-0.3h-1v2.5h0.5v-1h0.5c0.3,0,0.4,0.2,0.4,0.4l0,0.4c0,0.1,0,0.2,0.1,0.2h0.5c-0.1,0-0.1-0.2-0.1-0.2
			L117.8,15.7z M116.9,15L116.9,15h-0.5v-0.7h0.5h0.1c0.2,0,0.4,0.2,0.4,0.4c0,0,0,0,0,0.1C117.3,14.9,117.1,15,116.9,15z"/>
		<polygon fill-rule="evenodd" clip-rule="evenodd" fill="#FFFFFF" points="40.7,6.6 30.2,6.6 30.2,0.5 24.8,0.5 24.8,16.4 
			30.2,16.4 30.2,10 40.7,10 40.7,16.4 46.1,16.4 46.1,0.5 40.7,0.5 		"/>
		<path fill-rule="evenodd" clip-rule="evenodd" fill="#FFFFFF" d="M58.8,0.5h-2l-9.7,15.9h4.1l2-3.3h5.6h5.6l1.9,3.3h6.6L63.2,0.5
			H58.8z M58.8,10h-3.7l3.7-6.1l0.1-0.1l3.6,6.2H58.8z"/>
		<path fill-rule="evenodd" clip-rule="evenodd" fill="#FFFFFF" d="M94.4,7.4c1.3-1.7,1.1-4.2-1.4-5.6C90.7,0.5,86.3,0,83.6,0
			c-4.4,0-7.2,0.3-9.7,0.7v15.7h5.4V3.1c1.9-0.4,3.9-0.4,4.7-0.4c2.1,0.1,3.4,0.4,4.3,1.1c1,0.7,1.3,2.3,0,3.4
			c-1,0.8-2.9,1.4-7.3,0.8l-0.6,1l8.3,7.4H96L88.6,10C90.4,9.8,93.1,9.1,94.4,7.4z"/>
		<path fill-rule="evenodd" clip-rule="evenodd" fill="#FFFFFF" d="M12.9,6C9.8,5.4,7.1,5,7.1,4c0-1.1,2.2-1.4,5.2-1.1
			c2.9,0.3,5.6,1.1,8.1,2.1l1.9-3.1C20.3,1.1,16.1,0.1,12.3,0C8.1-0.1,1,0.3,0.7,4.5c-0.3,3.9,5.3,4.8,8.9,5.6
			c3.5,0.8,6.9,1.1,6.9,2.4c0,0.8-1.1,1.5-4.3,1.3c-3.7-0.3-6.9-1.3-10-2.9L0,14.4c3.5,1.4,8.1,2.5,12.2,2.5
			c4.9,0.1,10.5-0.7,10.6-4.9C23,8.5,19.3,7.3,12.9,6z"/>
		<path fill-rule="evenodd" clip-rule="evenodd" fill="#FFFFFF" d="M116.6,1.8c-2.1-1.2-5.8-1.7-8.8-1.8c-0.2,0-0.5,0-0.7,0
			c-4.4,0-7.2,0.3-9.7,0.7v15.7h5.4v-5.8c1.5,0.2,3.3,0.4,5,0.4c0.2,0,0.4,0,0.6,0c4.4,0,7.7-1.1,9.2-2.7c0.8-0.9,1.2-1.9,1.3-2.8
			V5.3C118.8,3.9,118,2.7,116.6,1.8z M111.9,7.3c-0.9,0.7-2.1,1-4.1,1c-0.1,0-0.2,0-0.4,0c-1.6,0-3.3-0.3-4.6-0.6V3.1
			c2-0.4,4-0.4,4.7-0.4c0.1,0,0.2,0,0.2,0c2,0.1,3.2,0.5,4.1,1.1C112.9,4.5,113.2,6.2,111.9,7.3z"/>
	</g>
</g>
</svg>
