<?xml version="1.0" encoding="utf-8"?>
<!-- Generator: Adobe Illustrator 19.1.0, SVG Export Plug-In . SVG Version: 6.00 Build 0)  -->
<svg version="1.0" id="Layer_1" xmlns="http://www.w3.org/2000/svg" xmlns:xlink="http://www.w3.org/1999/xlink" x="0px" y="0px"
	 width="174px" height="127.3px" viewBox="47 -23.3 174 127.3" enable-background="new 47 -23.3 174 127.3" xml:space="preserve">
<g id="dropdown">
</g>
<g>
	<path fill="#F3F5F5" d="M162.6,62.2c-1,0-1.8,0.4-2.4,1.2c-0.6,0.8-1,1.8-1.1,3.1l0.1,0.1h6.8v-0.5c0-1.2-0.3-2.1-0.8-2.8
		S163.7,62.2,162.6,62.2z"/>
	<path fill="#F3F5F5" d="M76.5,25.3c0.8-0.6,1.2-1.5,1.2-2.7c0-1.3-0.4-2.2-1.2-2.8c-0.8-0.6-2-0.9-3.6-0.9h-3.8v7.3h4
		C74.5,26.2,75.7,25.9,76.5,25.3z"/>
	<path fill="#F3F5F5" d="M92.9,34.4c-0.6,0.6-0.9,1.2-0.9,2c0,0.7,0.2,1.2,0.7,1.6c0.5,0.4,1.1,0.6,1.9,0.6c0.8,0,1.6-0.2,2.3-0.5
		c0.7-0.4,1.2-0.8,1.6-1.4v-3.1h-2.8C94.4,33.5,93.5,33.8,92.9,34.4z"/>
	<path fill="#F3F5F5" d="M77.6,37.1c0.8-0.6,1.2-1.6,1.2-2.8c0-1.4-0.3-2.4-1-3.1C77.1,30.4,76,30,74.6,30h-5.5v8h5.1
		C75.7,38,76.8,37.7,77.6,37.1z"/>
	<path fill="#F3F5F5" d="M74.6,55.4h-4.7v9.1h4.7c1.6,0,2.7-0.4,3.5-1.3c0.8-0.8,1.2-1.9,1.2-3.2c0-1.3-0.4-2.4-1.2-3.3
		C77.3,55.9,76.2,55.4,74.6,55.4z"/>
	<path fill="#F3F5F5" d="M204.4,35.7c-0.4,0-0.7,0.2-1,0.5c-0.2,0.3-0.4,0.7-0.4,1.2l0,0h2.7v-0.2c0-0.5-0.1-0.8-0.3-1.1
		C205.2,35.8,204.9,35.7,204.4,35.7z"/>
	<path fill="#F3F5F5" d="M47-53.3V104h154.2L221,84.2V-53.3H47z M190.9,30.5h3.4v4.7c0.3-0.4,0.6-0.7,0.9-0.9
		c0.4-0.2,0.8-0.3,1.2-0.3c0.9,0,1.5,0.3,2,0.9c0.5,0.6,0.7,1.4,0.7,2.6v3.3l1.1,0.2v1.3H196V41l1-0.2v-3.3c0-0.6-0.1-1.1-0.3-1.4
		c-0.2-0.3-0.6-0.4-1-0.4c-0.3,0-0.6,0.1-0.8,0.2c-0.2,0.1-0.4,0.3-0.6,0.5v4.4l1,0.2v1.3H191V41l1.1-0.2v-8.7l-1.2-0.2V30.5z
		 M175.6,34.1h1.2v-0.9c0-0.9,0.3-1.6,0.8-2.1c0.5-0.5,1.3-0.7,2.2-0.7c0.2,0,0.4,0,0.6,0c0.2,0,0.4,0.1,0.6,0.1l-0.2,1.6
		c-0.1,0-0.2,0-0.4-0.1c-0.1,0-0.2,0-0.4,0c-0.4,0-0.6,0.1-0.8,0.3c-0.2,0.2-0.3,0.5-0.3,0.8v0.9h1.6v1.6H179v5.1l1.1,0.2v1.3h-4.3
		V41l1.1-0.2v-5.1h-1.2V34.1z M167.2,38.1c0-1.2,0.3-2.2,1-3s1.6-1.2,2.8-1.2c1.2,0,2.2,0.4,2.8,1.2c0.7,0.8,1,1.8,1,3v0.2
		c0,1.2-0.3,2.2-1,3s-1.6,1.2-2.8,1.2c-1.2,0-2.2-0.4-2.8-1.2s-1-1.8-1-3V38.1z M147.3,31.8c0-3.1,0.8-5.6,2.5-7.6
		c1.7-2,3.9-3,6.8-3c2.8,0,4.9,0.8,6.5,2.5c1.5,1.7,2.3,3.9,2.3,6.8v3h-12.3l0,0.1c0.1,1.4,0.6,2.5,1.4,3.4s1.9,1.3,3.3,1.3
		c1.2,0,2.3-0.1,3.1-0.4c0.8-0.2,1.7-0.6,2.7-1.2l1.5,3.4c-0.9,0.7-2,1.2-3.3,1.7c-1.4,0.5-2.9,0.7-4.5,0.7c-3,0-5.3-1-7.1-2.9
		s-2.7-4.3-2.7-7.3V31.8z M135.1,12.6h8.5v25.8l2.7,0.6v3.3h-10.9V39l2.7-0.6V16.5l-3-0.6V12.6z M120.7,21.7h3v-5.1h5.5v5.1h3.6v3.9
		h-3.6v10.5c0,0.8,0.2,1.4,0.5,1.7c0.3,0.3,0.8,0.5,1.3,0.5c0.4,0,0.7,0,1,0c0.3,0,0.6-0.1,1-0.2l0.5,4c-0.6,0.2-1.2,0.3-1.8,0.4
		c-0.6,0.1-1.3,0.1-2,0.1c-1.9,0-3.4-0.5-4.4-1.6c-1-1.1-1.6-2.7-1.6-5V25.6h-3V21.7z M106,49.2h5.6v4.2H106V49.2z M60.5,39l3-0.6
		V18.5l-3-0.6v-3.4h3h9.4c3.3,0,5.8,0.6,7.6,1.9c1.8,1.3,2.7,3.2,2.7,5.7c0,1.3-0.3,2.4-1,3.4c-0.7,1-1.7,1.8-3,2.3
		c1.7,0.4,2.9,1.1,3.7,2.3c0.8,1.2,1.2,2.5,1.2,4.1c0,2.7-0.9,4.7-2.6,6c-1.8,1.4-4.2,2-7.5,2H60.5V39z M82.1,66.4
		c-1.8,1.6-4.3,2.4-7.5,2.4h-4.7V75l3,0.6v3.3H61.4v-3.3l3-0.6V55.1l-3-0.6v-3.4h3h10.3c3.2,0,5.7,0.8,7.5,2.4s2.8,3.8,2.8,6.4
		C84.9,62.7,84,64.8,82.1,66.4z M97.6,26.2c-0.6-0.5-1.4-0.8-2.5-0.8c-0.6,0-1.2,0.1-1.7,0.2c-0.5,0.1-0.9,0.3-1.2,0.5l-0.4,2.2
		h-4.2l0-4.6c1-0.7,2.2-1.3,3.5-1.7c1.3-0.5,2.7-0.7,4.3-0.7c2.6,0,4.6,0.6,6.2,1.9c1.6,1.3,2.4,3,2.4,5.3v8.5c0,0.3,0,0.6,0,0.9
		s0,0.5,0.1,0.8l1.7,0.2v3.3h-6.4c-0.2-0.3-0.3-0.7-0.4-1.1c-0.1-0.4-0.2-0.7-0.3-1.1c-0.7,0.8-1.5,1.4-2.4,1.8
		c-0.9,0.5-2,0.7-3.3,0.7c-2,0-3.6-0.5-4.8-1.6c-1.2-1.1-1.8-2.6-1.8-4.5c0-1.9,0.8-3.4,2.3-4.5c1.6-1.1,3.8-1.6,6.8-1.6h2.8v-2
		C98.5,27.5,98.2,26.7,97.6,26.2z M100.8,63.2l-2.3-0.1c-0.8,0-1.5,0.2-2,0.5c-0.5,0.3-0.9,0.8-1.2,1.4v10l2.7,0.6v3.3H87.1v-3.3
		l2.7-0.6V62.2l-3-0.6v-3.4h8.1l0.2,3c0.5-1.1,1.1-1.9,1.9-2.5c0.8-0.6,1.6-0.9,2.6-0.9c0.3,0,0.6,0,0.9,0.1c0.3,0,0.6,0.1,0.8,0.2
		L100.8,63.2z M114.2,78.9h-10.9v-3.3L106,75V62.2l-3-0.6v-3.4h8.5V75l2.7,0.6V78.9z M111,41.1c-1-1.1-1.6-2.7-1.6-5V25.6h-3v-3.9h3
		v-5.1h5.5v5.1h3.6v3.9H115v10.5c0,0.8,0.2,1.4,0.5,1.7c0.3,0.3,0.8,0.5,1.3,0.5c0.4,0,0.7,0,1,0c0.3,0,0.6-0.1,1-0.2l0.5,4
		c-0.6,0.2-1.2,0.3-1.8,0.4c-0.6,0.1-1.3,0.1-2,0.1C113.5,42.7,112,42.2,111,41.1z M139.3,78.9h-10.6v-3.3L131,75v-9
		c0-1.4-0.3-2.4-0.8-2.9c-0.6-0.6-1.4-0.9-2.5-0.9c-0.7,0-1.4,0.2-2,0.4c-0.6,0.3-1.1,0.7-1.5,1.3V75l2.2,0.6v3.3h-10.5v-3.3
		l2.7-0.6V62.2l-3-0.6v-3.4h8.1l0.2,3c0.7-1.1,1.5-1.9,2.5-2.5c1-0.6,2.1-0.9,3.4-0.9c2.1,0,3.7,0.7,4.9,2s1.8,3.4,1.8,6.2v9
		l2.7,0.6V78.9z M150.3,79.1c-0.6,0.1-1.3,0.1-2,0.1c-1.9,0-3.4-0.5-4.4-1.6c-1-1.1-1.6-2.7-1.6-5V62.2h-3v-3.9h3v-5.1h5.5v5.1h3.6
		v3.9h-3.6v10.5c0,0.8,0.2,1.4,0.5,1.7c0.3,0.3,0.8,0.5,1.3,0.5c0.4,0,0.7,0,1,0c0.3,0,0.6-0.1,1-0.2l0.5,4
		C151.5,78.9,150.9,79,150.3,79.1z M171.4,70.2h-12.3l0,0.1c0.1,1.4,0.6,2.5,1.4,3.4c0.8,0.9,1.9,1.3,3.3,1.3c1.2,0,2.3-0.1,3.1-0.4
		s1.7-0.6,2.7-1.2l1.5,3.4c-0.9,0.7-2,1.2-3.3,1.7c-1.4,0.5-2.9,0.7-4.5,0.7c-3,0-5.4-1-7.1-2.9s-2.7-4.3-2.7-7.3v-0.8
		c0-3.1,0.8-5.6,2.5-7.6c1.7-2,3.9-3,6.8-3c2.8,0,4.9,0.8,6.5,2.5c1.5,1.7,2.3,3.9,2.3,6.8V70.2z M187.3,63.2l-2.3-0.1
		c-0.8,0-1.5,0.2-2,0.5c-0.5,0.3-0.9,0.8-1.2,1.4v10l2.7,0.6v3.3h-10.9v-3.3l2.7-0.6V62.2l-3-0.6v-3.4h8.1l0.2,3
		c0.5-1.1,1.1-1.9,1.9-2.5s1.6-0.9,2.6-0.9c0.3,0,0.6,0,0.9,0.1s0.6,0.1,0.8,0.2L187.3,63.2z M188.7,42.5c-0.8,0-1.3-0.2-1.8-0.6
		c-0.4-0.4-0.6-1.1-0.6-2v-4.2h-1.2v-1.6h1.2v-2h2.2v2h1.4v1.6h-1.4v4.2c0,0.3,0.1,0.5,0.2,0.7c0.1,0.1,0.3,0.2,0.5,0.2
		c0.2,0,0.3,0,0.4,0c0.1,0,0.2,0,0.4-0.1l0.2,1.6c-0.2,0.1-0.5,0.1-0.7,0.2C189.2,42.5,188.9,42.5,188.7,42.5z M204.2,77.5
		c-1.6,1.2-3.7,1.8-6.3,1.8c-1.6,0-3-0.2-4.4-0.7c-1.3-0.5-2.5-1.1-3.5-2L190,72h3.9l0.8,2.7c0.3,0.3,0.8,0.5,1.4,0.6
		s1.2,0.2,1.8,0.2c1.1,0,2-0.2,2.6-0.6c0.6-0.4,0.9-1,0.9-1.7c0-0.6-0.3-1.1-0.9-1.6c-0.6-0.4-1.7-0.8-3.3-1.2
		c-2.4-0.5-4.3-1.2-5.5-2.2c-1.2-1-1.9-2.3-1.9-4c0-1.7,0.7-3.2,2.1-4.5c1.4-1.3,3.5-1.9,6.1-1.9c1.6,0,3.1,0.2,4.5,0.6
		c1.4,0.4,2.6,1,3.4,1.7l0.1,5.1h-3.7l-0.6-2.6c-0.4-0.3-0.9-0.6-1.4-0.8c-0.6-0.2-1.2-0.3-1.9-0.3c-1,0-1.8,0.2-2.3,0.7
		s-0.9,1-0.9,1.6c0,0.6,0.3,1.1,0.8,1.6c0.5,0.4,1.6,0.8,3.3,1.1c2.6,0.5,4.4,1.3,5.7,2.2c1.2,1,1.8,2.3,1.8,4.1
		C206.6,74.8,205.8,76.3,204.2,77.5z M207.9,38.9H203l0,0c0,0.5,0.2,1,0.5,1.3c0.3,0.3,0.8,0.5,1.3,0.5c0.5,0,0.9,0,1.2-0.1
		c0.3-0.1,0.7-0.3,1.1-0.5l0.6,1.4c-0.3,0.3-0.8,0.5-1.3,0.7s-1.1,0.3-1.8,0.3c-1.2,0-2.1-0.4-2.8-1.1c-0.7-0.8-1.1-1.7-1.1-2.9
		v-0.3c0-1.2,0.3-2.2,1-3c0.7-0.8,1.6-1.2,2.7-1.2c1.1,0,2,0.3,2.6,1c0.6,0.7,0.9,1.6,0.9,2.7V38.9z"/>
	<path fill="#F3F5F5" d="M171.1,40.8c0.6,0,1-0.2,1.3-0.7c0.3-0.5,0.4-1.1,0.4-1.8v-0.2c0-0.7-0.1-1.3-0.4-1.8s-0.7-0.7-1.3-0.7
		s-1,0.2-1.3,0.7c-0.3,0.5-0.4,1.1-0.4,1.8v0.2c0,0.7,0.1,1.3,0.4,1.8C170.1,40.5,170.5,40.8,171.1,40.8z"/>
	<path fill="#F3F5F5" d="M160,30v-0.5c0-1.2-0.3-2.1-0.8-2.8s-1.4-1.1-2.5-1.1c-1,0-1.8,0.4-2.4,1.2s-1,1.8-1.1,3.1l0.1,0.1H160z"/>
</g>
</svg>
